<svg width="705" height="263" viewBox="0 0 705 263" fill="none" xmlns="http://www.w3.org/2000/svg">
<path d="M681.691 198.748C692.428 184.277 704.796 76.9533 704.796 54.9683C704.796 27.8857 688.925 28.3597 688.925 28.3597C688.925 28.3597 691.082 19.6486 688.925 14.822C685.952 8.17075 680.332 4.71199 673.053 5.01879C666.233 5.30623 663.25 7.35285 658.582 14.822C653.913 22.2911 649.245 98.3823 649.245 98.3823L637.098 102.006C621.961 106.523 615.288 124.217 623.673 137.605L624.872 139.519C630.004 147.711 640.061 151.348 649.245 148.332C649.245 148.332 649.245 190.812 651.815 198.748C655.732 210.848 670.954 213.219 681.691 198.748Z" fill="white"/>
<path d="M371.496 191.823C377.311 188.18 386.539 188.86 386.539 188.86L515.622 188.86C523.261 188.86 532.121 192.566 532.121 197.749C532.121 206.967 519.6 215.705 505.916 219.476C490.387 223.756 439.919 222.11 439.919 222.11L389.936 219.476C389.936 219.476 374.09 217.915 368.584 212.234C364.003 207.507 362.685 197.343 371.496 191.823Z" fill="white"/>
<path d="M439.903 160.699C435.389 161.888 433.823 167.143 433.823 167.143C433.823 167.143 432.206 184.087 433.014 199.082C433.264 203.719 434.85 208.951 444.361 210.022C455.303 211.255 458.834 211.836 463.755 208.395C471.684 202.85 471.637 183.821 471.637 183.821C471.637 183.821 474.41 170.171 463.26 162.884C458.669 159.884 446.741 158.897 439.903 160.699Z" fill="white"/>
<path d="M258.218 2.97395C268.154 -1.4248 278.31 -0.463388 287.132 2.74739C296.088 6.00726 303.705 11.5966 308.4 16.3197L308.882 16.8148C313.807 22.0201 317.452 29.814 319.679 39.013C321.979 48.516 322.774 59.5581 321.882 70.887C320.127 93.1788 311.83 116.669 295.493 131.756L294.709 132.468C286.302 139.976 273.186 143.857 260.93 142.455C248.845 141.073 237.539 134.544 232.411 121.238L232.172 120.599C227.22 107.018 224.159 92.045 223.271 77.974C222.383 63.9091 223.663 50.711 227.426 40.6966L228.051 39.057C234.549 22.2683 242.298 10.2967 257.745 3.18782L258.218 2.97395ZM282.508 42.5296C279.602 40.9817 276.177 40.401 272.738 42.2191L272.404 42.4027C267.233 45.3717 264.464 50.4867 262.105 57.557L261.638 58.9974C258.825 67.9092 259.123 82.6331 262.005 94.9056L262.149 95.4837C263.713 101.373 267.388 104.448 271.473 105.219C275.657 106.009 280.189 104.365 283.158 101.029L283.702 100.397C289.237 93.7555 292.27 83.4561 293.176 73.6478C293.644 68.5763 293.546 63.6116 292.923 59.3167C292.34 55.3002 291.292 51.8304 289.786 49.4085L289.479 48.9388C287.974 46.7488 285.494 44.1204 282.508 42.5296Z" fill="white"/>
<path d="M429.217 6.974C439.154 2.57514 449.309 3.53664 458.131 6.74744C467.088 10.0073 474.704 15.5966 479.399 20.3197L479.881 20.8148C484.806 26.0202 488.451 33.8139 490.678 43.0131C492.978 52.5161 493.773 63.5582 492.881 74.8871C491.126 97.1789 482.829 120.669 466.492 135.756L465.708 136.468C457.3 143.976 444.185 147.857 431.929 146.455C419.844 145.073 408.538 138.544 403.41 125.238L403.171 124.599C398.219 111.019 395.158 96.045 394.27 81.974C393.382 67.9093 394.662 54.711 398.425 44.6967L399.05 43.057C405.548 26.2685 413.298 14.2968 428.744 7.18787L429.217 6.974ZM453.507 46.5297C450.601 44.9818 447.176 44.4009 443.737 46.2191L443.404 46.4017C438.233 49.3707 435.464 54.4866 433.104 61.557L432.638 62.9965C429.825 71.9083 430.122 86.633 433.004 98.9056L433.148 99.4838C434.712 105.373 438.388 108.448 442.473 109.219C446.657 110.009 451.188 108.365 454.157 105.029L454.701 104.397C460.236 97.7556 463.269 87.4562 464.175 77.6478C464.643 72.5764 464.546 67.6116 463.923 63.3168C463.34 59.3004 462.292 55.8304 460.786 53.4086L460.479 52.9388C458.973 50.7488 456.493 48.1205 453.507 46.5297Z" fill="white"/>
<path d="M148.445 199.983C158.715 186.913 156.871 46.224 156.871 46.224C156.871 46.224 157.428 38.2298 155.364 33.8707C152.521 27.8637 147.145 24.7399 140.182 25.017C133.659 25.2766 130.805 27.125 126.34 33.8707C121.874 40.6164 117.409 109.338 117.409 109.338L102.838 113.443C91.1244 116.742 87.1405 131.328 95.5503 140.124C99.7793 144.548 106.147 146.198 111.992 144.386L117.409 142.706C117.409 142.706 117.409 192.816 119.867 199.983C123.615 210.911 138.175 213.053 148.445 199.983Z" fill="white"/>
<path d="M197.141 209.003C207.776 194.513 205.867 38.5309 205.867 38.5309C205.867 38.5309 206.443 29.6678 204.306 24.8349C201.361 18.1749 195.794 14.7116 188.584 15.0188C181.828 15.3066 178.873 17.3559 174.249 24.8349C169.624 32.3138 167.546 109 167.546 109L165 158.52C165 158.52 165 201.057 167.546 209.003C171.426 221.118 186.505 223.493 197.141 209.003Z" fill="white"/>
<path d="M364.141 135.992C374.776 125.835 372.867 16.4947 372.867 16.4947C372.867 16.4947 373.443 10.2819 371.306 6.89405C368.361 2.22556 362.794 -0.202152 355.584 0.0131855C348.828 0.214946 345.873 1.65147 341.249 6.89405C336.624 12.1366 334.546 65.8922 334.546 65.8922L332 100.605C332 100.605 332 130.422 334.546 135.992C338.426 144.485 353.505 146.15 364.141 135.992Z" fill="white"/>
<path d="M4.21729 109.249C7.5677 115.333 17.9029 116.337 17.9029 116.337C17.9029 116.337 50.3997 114.744 78.6135 110.182C87.3376 108.772 96.6049 105.348 96.5848 91.7078C96.5694 81.2696 97.9996 78.5621 90.285 72.4198C77.8539 62.5223 41.8119 66.9344 41.8119 66.9344C41.8119 66.9344 15.2763 66.148 4.17941 83.5112C-0.389371 90.6599 -0.858515 100.033 4.21729 109.249Z" fill="white"/>
<path d="M63.9813 70.3687C58.4609 74.0451 57.8712 79.1516 57.8712 79.1516C57.8712 79.1516 54.4091 124.041 54.0305 163.498C53.9134 175.699 55.3452 189.312 66.6564 191.003C79.6683 192.948 83.8517 194.059 90.0625 184.396C100.07 168.825 102.569 106.386 102.569 106.386C102.569 106.386 104.516 91.2385 91.7976 73.3477C86.5612 65.9818 72.3446 64.7991 63.9813 70.3687Z" fill="white"/>
<path d="M271.022 223.269C274.271 218.107 279.426 219.071 279.426 219.071L351.539 219.071C355.807 219.071 360.757 224.321 360.757 231.663C360.757 244.722 362.333 249.602 354.688 254.945C346.013 261.008 326.4 263.171 308.007 261.947C292.488 260.915 272.472 260.232 269.396 252.184C266.837 245.488 266.1 231.089 271.022 223.269Z" fill="white"/>
<path d="M299.017 163.513C303.463 167.112 302.41 172.527 302.41 172.527L299.625 248.709C299.46 253.218 294.619 258.276 288.117 258.039C276.552 257.616 272.168 259.122 267.732 250.874C262.698 241.513 261.54 220.723 263.334 201.331C264.848 184.97 266.226 163.847 273.473 160.858C279.502 158.371 292.282 158.06 299.017 163.513Z" fill="white"/>
<path d="M341.159 167.275C337.331 170.235 337.808 175.213 337.808 175.213L334.83 244.437C334.654 248.534 338.208 253.446 343.462 253.673C352.809 254.075 356.237 255.737 360.376 248.564C365.074 240.423 367.432 221.662 367.316 203.968C367.218 189.039 367.555 169.804 361.922 166.604C357.235 163.941 346.96 162.79 341.159 167.275Z" fill="white"/>
<path d="M268.087 181.362C270.781 186.042 280.975 188.272 280.975 188.272C280.975 188.272 313.533 192.019 342.137 193.088C350.982 193.419 360.843 192.483 362.01 183.069C363.352 172.24 364.136 168.768 357.099 163.397C345.759 154.742 309.369 152.404 309.369 152.404C309.369 152.404 283.005 147.91 270.102 158.19C264.79 162.422 264.006 174.271 268.087 181.362Z" fill="white"/>
<path d="M521.416 148.241C524.474 143.113 529.326 144.071 529.326 144.071L597.198 144.071C601.215 144.071 605.874 149.288 605.874 156.583C605.874 169.558 607.357 174.407 600.162 179.716C591.997 185.74 573.537 187.889 556.225 186.673C541.619 185.648 522.78 184.969 519.885 176.972C517.476 170.319 516.783 156.011 521.416 148.241Z" fill="white"/>
<path d="M550.25 29.8429C554.052 35.4755 552.964 44.1673 552.964 44.1673L548.228 166.115C547.948 173.332 543.538 181.562 537.826 181.365C527.666 181.015 523.766 183.549 520.111 170.479C515.964 155.646 515.569 122.422 517.729 91.3496C519.551 65.1341 521.397 31.3042 527.86 26.318C533.238 22.1696 544.489 21.3097 550.25 29.8429Z" fill="white"/>
<path d="M584.974 27.3036C579.685 32.5925 580.228 41.346 580.228 41.346L574.659 163.262C574.329 170.478 579.071 179.053 586.237 179.343C598.983 179.86 603.625 182.717 609.43 170.004C616.018 155.577 619.644 122.505 619.87 91.3595C620.061 65.0822 620.94 31.2158 613.322 25.6971C606.984 21.1057 592.987 19.2912 584.974 27.3036Z" fill="white"/>
<path d="M522.978 95.196C525.439 101.751 535.582 104.398 535.582 104.398C535.582 104.398 568.155 108.021 596.892 108.021C605.778 108.021 615.754 106.154 617.432 92.6162C619.363 77.043 620.337 72.0305 613.541 64.7187C602.589 52.9366 566.082 51.5361 566.082 51.5361C566.082 51.5361 539.784 46.5128 526.246 61.9179C520.672 68.2605 519.249 85.2647 522.978 95.196Z" fill="white"/>
</svg>
