<svg width="656" height="245" viewBox="0 0 656 245" fill="none" xmlns="http://www.w3.org/2000/svg">
<path d="M634.494 185.02C644.488 171.55 656 71.6572 656 51.1943C656 25.9867 641.227 26.4279 641.227 26.4279C641.227 26.4279 643.235 18.3199 641.227 13.8275C638.46 7.63677 633.229 4.41748 626.454 4.70303C620.106 4.97058 617.33 6.8755 612.985 13.8275C608.64 20.7795 604.295 91.6025 604.295 91.6025L592.989 94.9758C578.899 99.1794 572.688 115.649 580.493 128.109L581.609 129.891C586.386 137.516 595.746 140.901 604.295 138.094C604.295 138.094 604.295 177.633 606.686 185.02C610.333 196.281 624.501 198.489 634.494 185.02Z" fill="#FFF8CE"/>
<path d="M345.775 178.574C351.188 175.183 359.777 175.816 359.777 175.816L479.923 175.816C487.033 175.816 495.28 179.266 495.28 184.089C495.28 192.669 483.625 200.802 470.889 204.312C456.436 208.296 409.461 206.764 409.461 206.764L362.939 204.312C362.939 204.312 348.19 202.859 343.065 197.571C338.802 193.172 337.574 183.712 345.775 178.574Z" fill="#FFF8CE"/>
<path d="M409.446 149.605C405.245 150.712 403.788 155.602 403.788 155.602C403.788 155.602 402.283 171.374 403.034 185.331C403.267 189.646 404.743 194.516 413.596 195.513C423.78 196.66 427.067 197.201 431.647 193.998C439.027 188.838 438.984 171.126 438.984 171.126C438.984 171.126 441.564 158.421 431.186 151.639C426.913 148.846 415.811 147.927 409.446 149.605Z" fill="#FFF8CE"/>
<path d="M240.769 2.57896C249.886 -1.29894 259.178 -0.384488 267.264 2.55845C275.605 5.59453 282.698 10.8002 287.071 15.1991L287.52 15.661C292.109 20.5115 295.504 27.7708 297.577 36.3358C299.719 45.1846 300.459 55.4659 299.629 66.0135C297.995 86.7671 290.271 108.64 275.057 122.69L274.326 123.353C266.493 130.348 254.276 133.962 242.86 132.656C231.603 131.368 221.068 125.286 216.29 112.888L216.067 112.293C211.457 99.6496 208.607 85.7091 207.779 72.6092C206.953 59.5156 208.145 47.2261 211.65 37.8993L212.232 36.3729C218.281 20.7432 225.498 9.59138 239.887 2.96958L240.769 2.57896ZM262.964 39.5887C260.253 38.1443 257.053 37.6 253.84 39.2987L253.529 39.4696C248.705 42.2391 246.124 47.0105 243.927 53.5936L243.492 54.9344C240.872 63.2367 241.15 76.9477 243.833 88.3739L243.968 88.9129C245.426 94.4054 248.856 97.2775 252.672 97.9979C256.578 98.7351 260.807 97.1998 263.578 94.0868L264.085 93.4979C269.243 87.3091 272.066 77.7149 272.909 68.5829C273.345 63.8605 273.254 59.2374 272.674 55.2372C272.131 51.4968 271.155 48.2615 269.75 46.0018L269.463 45.5633C268.06 43.5221 265.749 41.0724 262.964 39.5887Z" fill="#FFF8CE"/>
<path d="M399.929 6.30191C409.046 2.4239 418.338 3.33844 426.424 6.2814C434.765 9.31746 441.858 14.5231 446.231 18.922L446.68 19.3839C451.269 24.2345 454.664 31.4936 456.737 40.0587C458.879 48.9076 459.619 59.1889 458.789 69.7365C457.155 90.4901 449.43 112.363 434.217 126.413L433.486 127.076C425.653 134.071 413.436 137.685 402.02 136.379C390.763 135.091 380.228 129.009 375.45 116.611L375.227 116.016C370.617 103.373 367.766 89.4321 366.939 76.3322C366.113 63.2387 367.305 50.949 370.809 41.6222L371.391 40.0959C377.441 24.4663 384.659 13.3144 399.047 6.69254L399.929 6.30191ZM422.124 43.3117C419.413 41.8674 416.213 41.3229 413 43.0216L412.689 43.1925C407.865 45.9621 405.285 50.7335 403.088 57.3166L402.652 58.6574C400.032 66.9597 400.31 80.6708 402.993 92.0968L403.129 92.6359C404.587 98.1283 408.016 101 411.832 101.721C415.738 102.458 419.967 100.923 422.738 97.8097L423.245 97.2209C428.403 91.0321 431.226 81.438 432.069 72.3058C432.505 67.5833 432.415 62.9595 431.835 58.9591C431.292 55.2189 430.316 51.9843 428.911 49.7248L428.624 49.2863C427.221 47.245 424.909 44.7954 422.124 43.3117Z" fill="#FFF8CE"/>
<path d="M138.167 186.169C147.727 174.004 146.01 43.0554 146.01 43.0554C146.01 43.0554 146.528 35.6148 144.608 31.5574C141.961 25.9663 136.957 23.0588 130.477 23.3167C124.405 23.5583 121.749 25.2788 117.593 31.5574C113.436 37.8361 109.28 101.8 109.28 101.8L95.7181 105.62C84.8153 108.692 81.1072 122.267 88.9348 130.455C92.871 134.572 98.7977 136.108 104.238 134.421L109.28 132.857C109.28 132.857 109.28 179.498 111.568 186.169C115.056 196.34 128.608 198.334 138.167 186.169Z" fill="#FFF8CE"/>
<path d="M183.492 194.564C193.391 181.077 191.614 35.8949 191.614 35.8949C191.614 35.8949 192.15 27.6455 190.161 23.1471C187.42 16.9483 182.238 13.7247 175.527 14.0107C169.239 14.2786 166.489 16.186 162.185 23.1471C157.88 30.1083 155.946 101.485 155.946 101.485L153.576 147.577C153.576 147.577 153.576 187.168 155.946 194.564C159.558 205.841 173.592 208.052 183.492 194.564Z" fill="#FFF8CE"/>
<path d="M338.929 126.609C348.829 117.154 347.051 15.3844 347.051 15.3844C347.051 15.3844 347.588 9.60175 345.599 6.44848C342.858 2.10321 337.676 -0.156418 330.965 0.0440109C324.677 0.231802 321.927 1.56887 317.622 6.44848C313.318 11.3281 311.383 61.3619 311.383 61.3619L309.014 93.6713C309.014 93.6713 309.014 121.424 311.383 126.609C314.996 134.513 329.03 136.063 338.929 126.609Z" fill="#FFF8CE"/>
<path d="M3.92529 101.717C7.04374 107.38 16.6634 108.314 16.6634 108.314C16.6634 108.314 46.9103 106.832 73.1707 102.586C81.2908 101.273 89.9165 98.0864 89.8977 85.3902C89.8834 75.6747 91.2146 73.1546 84.0341 67.4376C72.4637 58.2253 38.9171 62.3319 38.9171 62.3319C38.9171 62.3319 14.2186 61.6 3.89004 77.761C-0.362428 84.4148 -0.799091 93.1392 3.92529 101.717Z" fill="#FFF8CE"/>
<path d="M59.5516 65.5285C54.4134 68.9503 53.8645 73.7033 53.8645 73.7033C53.8645 73.7033 50.6421 115.485 50.2897 152.21C50.1807 163.566 51.5134 176.236 62.0415 177.811C74.1525 179.621 78.0463 180.655 83.8271 171.661C93.1421 157.168 95.4673 99.0517 95.4673 99.0517C95.4673 99.0517 97.2797 84.9533 85.442 68.3013C80.5682 61.4453 67.3358 60.3445 59.5516 65.5285Z" fill="#FFF8CE"/>
<path d="M252.258 207.843C255.282 203.038 260.08 203.936 260.08 203.936L327.201 203.936C331.173 203.936 335.78 208.822 335.78 215.656C335.78 227.81 337.247 232.353 330.132 237.326C322.057 242.969 303.802 244.982 286.682 243.843C272.237 242.882 253.607 242.247 250.744 234.755C248.362 228.523 247.677 215.121 252.258 207.843Z" fill="#FFF8CE"/>
<path d="M278.315 152.224C282.453 155.574 281.473 160.614 281.473 160.614L278.88 231.521C278.727 235.718 274.221 240.426 268.169 240.205C257.405 239.812 253.325 241.214 249.196 233.536C244.51 224.823 243.432 205.473 245.102 187.424C246.511 172.196 247.794 152.535 254.539 149.753C260.15 147.438 272.046 147.148 278.315 152.224Z" fill="#FFF8CE"/>
<path d="M317.539 155.725C313.976 158.48 314.42 163.114 314.42 163.114L311.649 227.545C311.484 231.358 314.792 235.931 319.683 236.141C328.382 236.516 331.573 238.063 335.426 231.386C339.798 223.809 341.993 206.347 341.885 189.878C341.793 175.983 342.108 158.08 336.864 155.101C332.502 152.622 322.938 151.551 317.539 155.725Z" fill="#FFF8CE"/>
<path d="M249.526 168.837C252.033 173.193 261.522 175.269 261.522 175.269C261.522 175.269 291.826 178.757 318.45 179.752C326.682 180.059 335.86 179.188 336.946 170.426C338.196 160.347 338.925 157.115 332.375 152.116C321.821 144.061 287.95 141.884 287.95 141.884C287.95 141.884 263.411 137.701 251.401 147.269C246.457 151.208 245.728 162.238 249.526 168.837Z" fill="#FFF8CE"/>
<path d="M485.316 138.01C488.162 133.236 492.678 134.128 492.678 134.128L555.851 134.128C559.59 134.128 563.926 138.983 563.926 145.773C563.926 157.85 565.307 162.364 558.61 167.305C551.01 172.912 533.829 174.913 517.715 173.781C504.12 172.826 486.585 172.195 483.891 164.751C481.649 158.559 481.004 145.242 485.316 138.01Z" fill="#FFF8CE"/>
<path d="M512.153 27.8085C515.693 33.0511 514.679 41.1412 514.679 41.1412L510.272 154.646C510.011 161.363 505.906 169.023 500.59 168.84C491.133 168.514 487.503 170.873 484.101 158.708C480.241 144.902 479.873 113.978 481.884 85.0568C483.58 60.6563 485.298 29.1687 491.314 24.5277C496.319 20.6665 506.792 19.8661 512.153 27.8085Z" fill="#FFF8CE"/>
<path d="M544.474 25.445C539.551 30.3676 540.056 38.5151 540.056 38.5151L534.872 151.991C534.566 158.706 538.979 166.688 545.649 166.958C557.513 167.439 561.833 170.098 567.236 158.266C573.368 144.837 576.743 114.055 576.954 85.0659C577.131 60.608 577.95 29.0862 570.859 23.9496C564.96 19.6761 551.932 17.9873 544.474 25.445Z" fill="#FFF8CE"/>
<path d="M486.77 88.6369C489.061 94.7385 498.501 97.2022 498.501 97.2022C498.501 97.2022 528.819 100.574 555.566 100.574C563.837 100.574 573.122 98.8361 574.684 86.2357C576.481 71.7408 577.389 67.0753 571.063 60.2697C560.869 49.3033 526.89 47.9998 526.89 47.9998C526.89 47.9998 502.412 43.3243 489.811 57.6628C484.623 63.5663 483.299 79.3932 486.77 88.6369Z" fill="#FFF8CE"/>
</svg>
