<svg width="865" height="126" viewBox="0 0 865 126" fill="none" xmlns="http://www.w3.org/2000/svg">
<path fill-rule="evenodd" clip-rule="evenodd" d="M21.352 32.5412C27.3764 29.8843 33.5337 30.4651 38.8824 32.4044C44.3126 34.3733 48.9306 37.7494 51.7773 40.6022L52.0686 40.9012C55.0548 44.0453 57.2653 48.7528 58.6153 54.3092C60.0098 60.0492 60.4918 66.7188 59.951 73.5616C58.8869 87.0261 53.8567 101.214 43.9518 110.327L43.4763 110.757C38.3789 115.292 30.4273 117.637 22.9962 116.79C15.5533 115.941 8.5973 111.885 5.56056 103.588C2.55839 95.3854 0.702361 86.3412 0.16373 77.8421C-0.374635 69.3469 0.401859 61.3749 2.68304 55.3262L3.06197 54.3358C7.00193 44.1953 11.7003 36.9642 21.0654 32.6704L21.352 32.5412ZM36.0789 56.4339C34.3172 55.499 32.2412 55.1482 30.1563 56.2463L29.9538 56.3566C26.8185 58.1499 25.1397 61.24 23.7091 65.5106L23.4261 66.3801C21.7205 71.7629 21.9007 80.6568 23.6481 88.0697L23.7363 88.4189C24.6845 91.9763 26.9121 93.8333 29.3889 94.2991C31.9256 94.7762 34.6728 93.7829 36.4732 91.7681L36.803 91.3864C40.1589 87.375 41.9974 81.154 42.5468 75.2297C42.8308 72.1664 42.7718 69.1671 42.394 66.5729C42.0407 64.147 41.4052 62.0511 40.4922 60.5883L40.3057 60.3051C39.3932 58.9823 37.8893 57.3948 36.0789 56.4339Z" fill="white"/>
<path d="M94.1316 61.7614C94.1316 61.7614 100.075 43.4607 100.075 30.1815C100.075 13.8232 90.4523 14.1095 90.4523 14.1095C90.4523 14.1095 91.7602 8.84792 90.4523 5.93258C88.6499 1.91517 85.2424 -0.173959 80.8293 0.0113466C76.6944 0.184969 74.8858 1.42115 72.0555 5.93258C69.2251 10.444 67.4887 37.0394 66.3948 56.4041C65.4618 72.9224 66.2694 95.1384 66.9159 108.179C67.2182 114.278 72.289 119 78.4184 119C84.0688 119 88.9039 114.959 89.8859 109.415L94.1316 85.4463C100.531 88.5688 108 83.9278 108 76.829V75.5238C108 71.7304 105.929 68.2374 102.594 66.4067L94.1316 61.7614Z" fill="white"/>
<path d="M176.437 77.9061C168.874 73.9218 160.502 62.9829 160.502 62.9829C160.502 62.9829 144.034 82.4891 132.045 80.4402C124.554 79.1599 122.071 75.5911 121.232 69.7406C120.326 63.4281 130.053 55.9437 130.053 55.9437C130.053 55.9437 163.347 23 173.592 23C187.605 23 181.275 47.4966 181.275 47.4966L197.211 59.3226C197.211 59.3226 205.599 65.195 207.74 69.7406C210.197 74.9577 205.757 81.0769 197.211 82.9745C186.966 85.2491 183.028 81.3779 176.437 77.9061Z" fill="white"/>
<path d="M119.809 92.8295C123.219 89.7131 128.63 90.2953 128.63 90.2953L204.325 90.2952C208.805 90.2952 214 93.4651 214 97.8977C214 105.782 206.658 113.256 198.634 116.481C189.527 120.142 159.933 118.734 159.933 118.734L130.623 116.481C130.623 116.481 121.331 115.146 118.102 110.287C115.415 106.244 114.642 97.5507 119.809 92.8295Z" fill="white"/>
<path d="M610.821 77.9061C603.334 73.9218 595.048 62.9829 595.048 62.9829C595.048 62.9829 578.748 82.4891 566.881 80.4402C559.466 79.1599 557.009 75.5911 556.178 69.7406C555.282 63.4281 564.91 55.9437 564.91 55.9437C564.91 55.9437 597.864 23 608.004 23C621.874 23 615.609 47.4966 615.609 47.4966L631.382 59.3226C631.382 59.3226 639.684 65.195 641.803 69.7406C644.236 74.9577 639.841 81.0769 631.382 82.9745C621.242 85.2491 617.344 81.3779 610.821 77.9061Z" fill="white"/>
<path d="M554.77 92.8295C558.146 89.7131 563.502 90.2953 563.502 90.2953L638.424 90.2953C642.858 90.2952 648 93.4651 648 97.8977C648 105.782 640.732 113.256 632.79 116.481C623.777 120.142 594.484 118.734 594.484 118.734L565.473 116.481C565.473 116.481 556.276 115.146 553.08 110.287C550.421 106.244 549.656 97.5507 554.77 92.8295Z" fill="white"/>
<path d="M318.035 61.7614C318.035 61.7614 324.02 43.4607 324.02 30.1815C324.02 13.8232 314.33 14.1095 314.33 14.1095C314.33 14.1095 315.647 8.84792 314.33 5.93258C312.515 1.91517 309.084 -0.173959 304.64 0.0113466C300.477 0.184969 298.655 1.42115 295.805 5.93258C292.955 10.444 291.207 37.0394 290.105 56.4041C289.166 72.9224 289.979 95.1384 290.63 108.179C290.935 114.278 296.041 119 302.213 119C307.902 119 312.771 114.959 313.76 109.415L318.035 85.4463C324.479 88.5688 332 83.9278 332 76.829V75.5238C332 71.7304 329.914 68.2374 326.556 66.4067L318.035 61.7614Z" fill="white"/>
<path fill-rule="evenodd" clip-rule="evenodd" d="M224.034 32.2225C232.286 22.9327 248.303 25.9419 248.355 25.9517C248.355 25.9517 270.643 26.7976 277.329 33.9142C281.478 38.3306 280.883 41.3584 279.704 50.7646C278.679 58.9415 272.589 60.0696 267.164 60.0696C266.911 60.0696 266.657 60.0669 266.403 60.066C266.394 61.7927 266.377 63.5049 266.365 65.1352C266.326 70.8488 265.98 76.744 265.351 81.824H270.372C272.977 81.824 275.999 84.9952 275.999 89.4297C275.999 97.3171 276.961 100.265 272.294 103.492C266.998 107.154 255.024 108.461 243.795 107.722C234.321 107.098 222.1 106.686 220.222 101.824C218.66 97.7798 218.211 89.0825 221.216 84.3593C223.189 81.2575 226.314 81.8183 226.346 81.824H231.278C231.143 76.7185 231.29 70.8239 231.666 65.1317C231.814 62.893 231.963 60.4988 232.134 58.1272C230.617 57.9776 229.751 57.8831 229.734 57.8812C229.734 57.8812 223.542 56.2825 222.039 52.323C219.763 46.3243 220.631 36.0534 224.034 32.2225ZM242.397 81.824H251.397L252.36 59.6508C249.131 59.4843 246.041 59.2807 243.237 59.0751L242.397 81.824Z" fill="white"/>
<path d="M775.615 73.51C778.851 70.546 799.576 74.2462 814.937 73.51C830.062 72.7851 827.899 75.122 853.283 69.909C857.446 69.0541 864.999 74.1146 864.999 78.3304C864.999 85.829 865.219 90.4077 857.604 93.4755C848.963 96.957 830.06 97.5712 830.06 97.5712C830.06 97.5712 830.87 112.568 830.06 115.514C828.227 122.177 826.549 125.69 814.937 124.887C803.325 124.084 808.726 97.5712 808.726 97.5712L785.876 96.0052C785.876 96.0052 777.059 94.7353 773.995 90.1137C771.445 86.2687 770.712 78.0004 775.615 73.51Z" fill="white"/>
<path d="M782.519 9.55269C792.383 0.25205 814.187 2.15891 814.262 2.1655C814.262 2.1655 844.186 1.65092 854.031 8.00758C860.14 11.9525 859.854 11.8539 859.467 20.848C859.317 24.3337 857.642 26.5484 855.189 27.9624L843.831 35.898L848.693 39.3799C848.711 39.3925 856.655 44.9697 858.684 49.2881C861.016 54.2501 856.803 60.0705 848.693 61.8753C838.971 64.0387 835.233 60.3566 828.979 57.0545C821.842 53.2862 819.075 50.6567 819.044 50.6276C819.024 50.6523 803.409 69.1785 792.04 67.2311C784.93 66.0134 782.575 62.619 781.778 57.0545C780.92 51.0613 790.117 43.9572 790.149 43.9323L811.294 30.8851C800.894 30.7988 793.517 30.5534 793.517 30.5534C793.493 30.5502 785.027 29.3977 782.519 25.7349C778.715 20.1783 778.452 13.3886 782.519 9.55269Z" fill="white"/>
<path fill-rule="evenodd" clip-rule="evenodd" d="M680.196 112.232C677.398 107.601 678.076 102.315 680.116 97.6883C682.19 92.9885 685.69 88.9137 688.503 86.7873L688.777 86.5839C694.593 82.3322 704.989 79.1394 716.416 78.8635C727.85 78.5875 740.363 81.2304 750.409 88.7044L750.885 89.0642C755.544 92.6304 758.168 98.779 757.766 104.771C757.369 110.684 754.027 116.447 746.808 119.435L746.461 119.575C739.078 122.49 730.558 124.491 722.468 125.416C714.382 126.341 706.703 126.192 701.009 124.793L700.08 124.561C690.597 122.164 684.829 119.577 680.332 112.452L680.196 112.232ZM700.051 102.932C700.053 103.523 700.312 104.095 700.868 104.623L700.983 104.729C701.963 105.588 703.258 106.19 704.852 106.645C706.248 107.043 707.886 107.332 709.764 107.577L710.584 107.678C715.635 108.284 723.853 107.67 730.632 106.292L730.947 106.224C732.503 105.879 733.688 105.396 734.537 104.827C735.443 104.22 735.979 103.504 736.152 102.746C736.501 101.212 735.334 99.7402 733.404 98.8951L733.035 98.7391C729.163 97.1614 723.323 96.5322 717.817 96.5815C714.97 96.607 712.2 96.8145 709.822 97.1695C707.598 97.5015 705.697 97.9657 704.394 98.5418L704.142 98.6583C702.967 99.2258 701.558 100.136 700.74 101.191C700.33 101.721 700.049 102.313 700.051 102.932Z" fill="white"/>
<path d="M717.049 3.59088C717.049 3.59088 746.654 1.00284 756.851 6.65949C763.18 10.17 762.002 11.7251 762.002 17.7119C762.002 18.5808 761.907 19.3773 761.73 20.1084C761.557 23.1226 760.164 44.4835 755.083 50.0788C751.687 53.8173 749.379 53.3691 742.202 52.5621C735.962 51.8606 735.134 46.5552 735.163 41.8055C735.188 37.738 735.332 33.5229 735.529 29.5237C715.948 31.2884 697.407 31.962 697.353 31.9639C697.353 31.9639 688.866 31.4045 686.122 27.9208C681.965 22.643 682.361 17.266 686.122 13.1585C695.241 3.19946 716.974 3.5895 717.049 3.59088Z" fill="white"/>
<path d="M711.027 40.5485C714.955 39.5149 721.807 40.0813 724.444 41.8019C730.849 45.9809 729.256 53.8098 729.256 53.8098C729.256 53.8229 729.258 55.0052 729.1 56.6997H754.522C758.911 56.6997 764 58.8253 764 61.7975C764 67.0838 756.808 72.095 748.947 74.2579C740.034 76.7104 711.083 75.7699 711.036 75.7684L682.324 74.2579C682.279 74.2534 673.214 73.3545 670.059 70.1044C667.427 67.3936 666.67 61.5647 671.731 58.399C675.072 56.3094 680.373 56.6997 680.373 56.6997H706.942C706.977 50.0774 707.534 44.2492 707.535 44.2444C707.535 44.2444 708.434 41.2307 711.027 40.5485Z" fill="white"/>
<path d="M536.077 119.923C542.547 111.116 550 45.7939 550 32.4128C550 15.9292 540.436 16.2177 540.436 16.2177C540.436 16.2177 541.736 10.9157 540.436 7.97806C538.645 3.92985 535.258 1.82471 530.872 2.01143C526.763 2.18639 524.965 3.43204 522.152 7.97806C519.339 12.5241 516.527 58.8365 516.527 58.8365L509.207 61.0423C500.086 63.7911 496.065 74.5608 501.118 82.7088L501.84 83.8741C504.932 88.8603 510.993 91.0736 516.527 89.2379C516.527 89.2379 516.527 115.093 518.075 119.923C520.436 127.288 529.608 128.731 536.077 119.923Z" fill="white"/>
<path d="M443.814 55.7C445.631 63.2635 475.6 60.246 475.6 60.246C475.6 60.246 461.155 117.271 478.413 118.491C506.542 120.48 503.729 62.0333 503.729 53.4266C503.729 44.4634 499.978 37.8822 495.853 33.6705C489.207 26.884 470.281 27.9169 470.281 27.9169C470.281 27.9169 452.535 27.9168 445.784 36.3792C442.724 40.2144 442.38 49.7262 443.814 55.7Z" fill="white"/>
<path d="M431.236 61.7614C431.236 61.7614 437.135 43.4607 437.135 30.1815C437.135 13.8232 427.584 14.1095 427.584 14.1095C427.584 14.1095 428.882 8.84792 427.584 5.93258C425.795 1.91517 422.413 -0.173959 418.033 0.0113466C413.93 0.184969 412.135 1.42115 409.326 5.93258C406.516 10.444 404.793 37.0394 403.707 56.4041C402.781 72.9224 403.583 95.1384 404.225 108.179C404.525 114.278 409.557 119 415.641 119C421.249 119 426.047 114.959 427.022 109.415L431.236 85.4463C437.587 88.5688 445 83.9278 445 76.829V75.5238C445 71.7304 442.944 68.2374 439.634 66.4067L431.236 61.7614Z" fill="white"/>
<path d="M335.214 28.7995C343.361 19.4947 359.186 22.5288 359.186 22.5288C359.238 22.5308 381.161 23.3833 387.743 30.4912C390.02 32.9501 390.846 34.9786 390.932 37.9169C391.589 41.7599 391.645 46.4733 391.78 50.577C392.089 59.9949 390.402 69.9504 386.686 74.2255C386.465 74.4797 386.245 74.7114 386.027 74.9245C385.916 75.0446 385.791 75.1618 385.65 75.2743C384.379 76.3866 383.093 76.8604 381.474 77.0167C377.37 78.0617 371.497 78.5776 366.52 79.0924C364.542 79.297 362.533 79.4484 360.551 79.5431L360.765 84.5415C373.904 83.6077 385.511 83.4733 385.563 83.4727C385.563 83.4727 391.816 84.2259 393.772 87.6129C396.733 92.7441 397.143 102.054 394.284 105.865C387.35 115.11 371.31 114.17 371.263 114.168C371.263 114.168 353.495 115.54 344.55 111.686C343.561 111.398 342.679 110.904 341.797 110.096C338.987 107.913 338.036 105.987 337.717 102.722C336.256 97.8748 335.628 91.597 335.827 85.5407C336.059 78.4828 336.053 69.621 339.281 66.4866C340.172 65.2551 341.612 64.4517 342.961 64.3767L366.262 63.0814L366.549 56.3895C352.958 55.8115 340.832 54.4583 340.832 54.4583C340.798 54.4493 334.725 52.8484 333.248 48.9001C331.005 42.9015 331.86 32.6306 335.214 28.7995Z" fill="white"/>
</svg>
